<?xml version="1.0" encoding="utf-8"?>
<!-- Generator: Adobe Illustrator 25.2.3, SVG Export Plug-In . SVG Version: 6.00 Build 0)  -->
<svg version="1.1" id="レイヤー_1" xmlns="http://www.w3.org/2000/svg" xmlns:xlink="http://www.w3.org/1999/xlink" x="0px"
	 y="0px" viewBox="0 0 283.46 283.46" style="enable-background:new 0 0 283.46 283.46;" xml:space="preserve">
<style type="text/css">
	.st0{opacity:0.3;fill:#E7211A;enable-background:new    ;}
</style>
<path class="st0" d="M152.18,0.22c-6.95-0.23-13.94-0.23-20.89,0C77.92,2.07,24.07,17.81,24.07,48.77v185.95
	c0,32,59.2,48.73,117.66,48.73c58.48,0,117.66-16.73,117.66-48.73V48.77C259.39,17.81,205.54,2.07,152.18,0.22z M240.84,234.73
	c0,12.61-37.7,30.19-99.11,30.19s-99.11-17.59-99.11-30.19v-40.46c20.4,14.47,60.6,22.1,99.11,22.1c38.52,0,78.7-7.63,99.11-22.1
	V234.73z M240.84,172.52c0,12.61-37.7,30.19-99.11,30.19s-99.11-17.59-99.11-30.19v-37.6c20.4,14.47,60.6,22.1,99.11,22.1
	c38.52,0,78.7-7.63,99.11-22.1V172.52z M240.84,113.17c0,12.61-37.7,30.19-99.11,30.19s-99.11-17.59-99.11-30.19V70.52
	c20.4,14.47,60.6,22.1,99.11,22.1c38.52,0,78.7-7.63,99.11-22.1V113.17z M141.73,78.96c-61.41,0-99.11-17.59-99.11-30.19
	c0-6.7,10.64-14.8,29.83-20.93c1.13-0.35,2.28-0.72,3.48-1.05c7.13-2.07,15.29-3.89,24.43-5.27c12.16-1.85,26.05-2.95,41.39-2.95
	s29.23,1.09,41.39,2.95c9.12,1.39,17.3,3.18,24.43,5.27c1.19,0.35,2.34,0.7,3.48,1.05c19.17,6.13,29.83,14.23,29.83,20.93
	C240.84,61.39,203.14,78.96,141.73,78.96z"/>
</svg>
